/* XPM */
static char *f4e2951366e64eea95dad3654f4d20da8SPVvvNMLVkc11rc[] = {
/* columns rows colors chars-per-pixel */
"64 64 167 2 ",
"   c None",
".  c #000000",
"X  c #080604",
"o  c #0C0A07",
"O  c #0D0D0C",
"+  c #120F09",
"@  c #12100D",
"#  c #1A150D",
"$  c #1E180F",
"%  c #161513",
"&  c #1E1A13",
"*  c #1D1D1A",
"=  c #221C13",
"-  c #23211D",
";  c #342B1A",
":  c #382E1D",
">  c #3D321F",
",  c #262524",
"<  c #282723",
"1  c #2C2B26",
"2  c #2D2C2B",
"3  c #363025",
"4  c #3F3320",
"5  c #34322D",
"6  c #3D3C39",
"7  c #403420",
"8  c #473A24",
"9  c #54442A",
"0  c #59492D",
"q  c #43413A",
"w  c #48443B",
"e  c #554C3E",
"r  c #625032",
"t  c #695535",
"y  c #6D5937",
"u  c #715C39",
"i  c #76603B",
"p  c #7C653E",
"a  c #424242",
"s  c #484642",
"d  c #4E4B44",
"f  c #4B4B4A",
"g  c #534E46",
"h  c #595042",
"j  c #56534B",
"k  c #5B564D",
"l  c #5D594F",
"z  c #585858",
"x  c #625C54",
"c  c #6E614C",
"v  c #656055",
"b  c #6D6353",
"n  c #69665C",
"m  c #776B57",
"M  c gray39",
"N  c gray42",
"B  c #736F64",
"V  c #757166",
"C  c #777368",
"Z  c #797569",
"A  c #767676",
"S  c gray50",
"D  c #846C42",
"F  c #896F44",
"G  c #8B7146",
"H  c #917649",
"J  c #95794B",
"K  c #987C4D",
"L  c #83755E",
"P  c #857760",
"I  c #877860",
"U  c #8C7D64",
"Y  c #827E71",
"T  c #A38552",
"R  c #A78853",
"E  c #AC8C56",
"W  c #AF8F58",
"Q  c #B3925A",
"!  c #BD9A5F",
"~  c #908064",
"^  c #948468",
"/  c #9D8C6D",
"(  c #878376",
")  c #888476",
"_  c #8E8A7B",
"`  c #918C7E",
"'  c #A28F6E",
"]  c #AF966A",
"[  c #B0976F",
"{  c #A39172",
"}  c #A89574",
"|  c #B59E7A",
" . c #BFA77E",
".. c #C29E61",
"X. c #C7A264",
"o. c #C9A465",
"O. c #CDA867",
"+. c #CEAA6A",
"@. c #C0A16C",
"#. c #D4AD6B",
"$. c #D8AF6D",
"%. c #D7B06D",
"&. c #D9B16D",
"*. c #C3A97D",
"=. c #D3AF72",
"-. c #DAB472",
";. c #D9B67B",
":. c #848484",
">. c #979283",
",. c #999485",
"<. c #99958F",
"1. c #9E9989",
"2. c #939393",
"3. c #9A9A9A",
"4. c #A19885",
"5. c #A39E8E",
"6. c #A6A191",
"7. c #ADA897",
"8. c #AFAA98",
"9. c #A8A392",
"0. c #B4AE9D",
"q. c #B6B09E",
"w. c #AFAFAF",
"e. c gray63",
"r. c #BAB4A2",
"t. c #BFB9A6",
"y. c #BDBDBD",
"u. c #CAAF82",
"i. c #C4AB80",
"p. c #CDB182",
"a. c #DFBE83",
"s. c #D4B581",
"d. c #C2BCA9",
"f. c #C0BDB5",
"g. c #E0C087",
"h. c #C8C2AE",
"j. c #CBC5B1",
"k. c #CFC9B4",
"l. c #D4CDB9",
"z. c #E8CEA1",
"x. c #EBD3A9",
"c. c #EDD9B2",
"v. c gray78",
"b. c gray80",
"n. c #DCD6C1",
"m. c #D4D4D4",
"M. c #DDDDDD",
"N. c #E1DAC4",
"B. c #F5E6C6",
"V. c #F8EBCC",
"C. c #EFE7D0",
"Z. c #E5E1D1",
"A. c #F5EDD5",
"S. c #FFF7DE",
"D. c #FCF3D7",
"F. c #E6E6E6",
"G. c #ECECEC",
"H. c #FFF7E0",
"J. c #FFF9E5",
"K. c #FFF9E8",
"L. c #F4F2ED",
"P. c #F1F1F1",
"I. c #FFFCF1",
"U. c #FFFEFA",
"Y. c white",
"T. c #FFFFFE",
"R. c #FFFFFF",
/* pixels */
"                                                                                                                                ",
"                                                                                                                                ",
"                                                                                                                                ",
"                                                  #.#.&.&.&.#.O.X.+.&.&.&.$.#.&.                                                ",
"                                            #.&.+.K r > $ . . . . . . + ; 9 D ..&.#.&.                                          ",
"                                      &.%.O.D ; . . . . . . . . . . . . . . . . $ t ! &.#.                                      ",
"                                  &.&...0 X . . . . . . . . . . . . . . . . . . . . . : T &.#.                                  ",
"                                #.o.0 . . . . . . . . . . . . . . . . . . . . . . . . . . ; W $.&.                              ",
"                            &.&.D + . . . . . . . . . . . . . . . . . . . . . . . . . . . . . 0 +.#.                            ",
"                          #.+.8 . . . . . . . . . . . . . . . . . . . . . . . . . . . . . . . . $ Q $.                          ",
"                        #.! $ . . . . . . . . . . . . . . . . . . . . . . . . . . . . . . . . . . X G &.                        ",
"                      #.Q + . . . . . . . . . . . . . . . . . . . . . . . . . . . . . . . . . . . . . i &.                      ",
"                    #.Q o . . . . . . . . . . . . . . . . . . . . . . . . . . . . . . . . . . . . . . . u &.                    ",
"                  #.! + . . . . . . . . . . . . . . . . . . . . . . . . . . . . . . . . . . . . . . . . . D &.                  ",
"                &.+.$ . . . . . . . . . . . . . . . . . . . . . . . . . . . . . . . . . . . . . . . . . . . R #.                ",
"                &.8 . . . . . . . . . . . . . . . . . . . . . . . . . . . . . . . . . . . . . . . . . . . . @ o.#.              ",
"              #.D . . . . . . . . . . . . . . . . . . . . . % 1 5 1 X . . . . . . . . . . . . . . . . . . . . 7 &.              ",
"            &.O.+ . . . . . . . . . . . . . . . . . - V d.D.S.S.H.H.D.h.Z < . . . . . . . . . . . . . . . . . . J #.            ",
"            $.9 . . . . . . . . . . . . . . . . * ,.S.S.S.S.S.S.H.S.S.S.H.S.r.1 . . . . . . . . . . . . . . . . # #.            ",
"          %...X . . . . . . . . . . . . . . . B D.S.S.S.S.S.S.S.S.S.S.S.S.S.H.D.Y . . . . . . . . . . . . . . . . p #.          ",
"          #.0 . . . . . . . . . . . . . . X 1.S.S.S.S.S.S.S.S.S.S.S.S.S.S.S.S.S.S.0.O . . . . . . . . . . . . . . # #.          ",
"          +.X . . . . . . . . . . . . . . 8.S.S.S.S.S.S.S.S.S.S.S.S.S.S.S.S.S.S.S.S.t.X . . . . . . . . . . . . . . G $.        ",
"        #.D . . . . . . . . . . . . . . Y S.S.S.S.S.H.S.S.S.S.S.S.S.S.S.S.S.S.S.S.S.S.1.. . . . . . . . . . . . . . > &.        ",
"        &.; . . . . . . . . . . . . . q S.S.S.S.S.S.S.S.S.S.S.S.S.S.S.S.S.S.S.S.S.S.S.S.j . . . . . . . . . . . . . . X.&.      ",
"        O.. . . . . . . . . . . . . . j.S.S.S.S.S.S.S.S.S.S.S.S.S.S.S.S.S.S.S.S.S.S.S.S.n.o . . . . . . . . . . . . . F #.      ",
"      $.K . . . . . . . . . . . . . j S.S.S.S.S.S.S.S.S.S.S.S.S.H.S.S.S.S.S.S.S.S.S.S.S.H.n . . . . . . . . . . . . . 9 $.      ",
"      #.r . . . . . . . . . . . . . q.S.S.S.S.S.S.S.S.S.H.S.S.S.S.S.S.S.S.S.S.S.S.S.S.S.S.j.. . . . . . . . . . . . . # &.      ",
"      &.> . . . . . . . . . . . . O A.S.S.S.S.S.S.S.S.S.S.S.S.S.S.S.S.S.H.S.S.S.S.S.S.S.S.S.* . . . . . . . . . . . . . #.      ",
"      &.$ . . . . . . . . . . . . g S.S.S.S.S.S.S.S.S.S.S.S.S.S.S.S.S.S.S.S.S.S.H.S.S.S.S.S.v . . . . . . . . . . . . . Q &.    ",
"      $.. . . . . . . . . . . . . Z S.S.S.S.S.S.S.S.S.S.S.S.S.S.H.S.S.S.S.S.S.S.S.S.S.S.S.S._ . . . . . . . . . . . . . J &.    ",
"      #.. . . . . . . . . . . . . >.S.S.S.S.S.S.S.S.S.S.S.S.S.S.S.S.S.S.S.S.S.S.S.S.S.S.S.S.6.. . . . . . . . . . . . . G $.    ",
"      o.. . . . . . . . . . . . . ,.S.S.S.S.S.S.S.S.S.H.S.S.S.S.S.S.S.S.S.S.S.S.S.S.S.S.S.S.8.. . . . . . . . . . . . . p #.    ",
"      X.. . . . . . . . . . . . . _ S.S.S.S.S.H.S.S.S.H.S.S.S.S.S.S.S.S.S.S.S.S.S.S.S.S.S.S.6.. . . . . . . . . . . . . i #.    ",
"      +.. . . . . . . . . . . . . V S.S.S.S.S.S.S.S.S.C.N.S.S.D.N.S.S.S.S.S.S.S.S.S.S.S.S.S.( . . . . . . . . . . . . . F #.    ",
"      &.. . . . . . . . . . . . . w S.S.S.S.S.S.S.S.S.k.- r.>.* X V A.S.H.S.S.S.S.S.S.S.S.S.k . . . . . . . . . . . . . H $.    ",
"      &.+ . . . . . . . . . . . . X C.S.S.S.S.S.S.S.S.S.l.d @ . . X ,.S.S.S.S.S.S.S.S.S.S.D.@ . . . . . . . . . . . . . R &.    ",
"      &.; . . . . . . . . . . . . . 9.S.S.S.S.S.S.S.S.S.S.S._ k ( 1.n S.S.S.S.S.S.S.S.S.S.t.. . . . . . . . . . . . . . o.      ",
"      %.9 . . . . . . . . . . . . . q S.S.S.S.S.S.D.B.c.x.z.{ 1.K.n.B D.S.S.S.S.S.S.S.S.S.j . . . . . . . . . . . . . o &.      ",
"      #.D . . . . . . . . . . . . . . r.H.S.V.x.a.-.&.&.$.I <.m.R.b.L.Z.H.S.S.S.S.S.S.S.h.. . . . . . . . . . . . . . > &.      ",
"      &.... . . . . . . . . . . . . . w c.a.&.&.&.%.-.+.B M.Y.Y.Y.Y.Y.Y.U.J.S.S.S.S.S.S.6 . . . . . . . . . . . . . . i $.      ",
"        &.$ . . . . . . . . . . . e *.-.&.&.&.&.&.&.+.s F.Y.Y.Y.Y.Y.Y.Y.Y.Y.I.H.S.S.S.C . . . . . . . . . . . . . . . Q &.      ",
"        #.t . . . . . . . . o L s.&.&.&.&.&.&.&.&.&.g w.Y.Y.Y.Y.Y.Y.Y.Y.Y.Y.Y.U.J.S.5.. . . . . . . . . . . . . . . = &.        ",
"        &.! . . . . . . - } ;.&.&.&.&.&.&.&.&.&.&.[ 6 Y.Y.Y.Y.Y.Y.Y.Y.Y.Y.Y.Y.Y.U.y.. . . . . . . . . . . . . . . . u #.        ",
"          &.: . . . g  .-.&.&.&.&.&.&.&.&.&.&.&.&.l 3.Y.Y.Y.Y.Y.Y.Y.Y.Y.Y.Y.Y.Y.Y.Y.w.@ . . . . . . . . . . . . . X X.&.        ",
"          #.T & / ;.&.&.&.&.&.&.&.&.&.&.&.&.&.&.&., b.Y.Y.Y.Y.Y.Y.Y.Y.Y.Y.Y.Y.Y.Y.Y.Y.m., . . . . . . . . . . . . 0 &.          ",
"            &.c =.$.&.&.&.&.&.&.&.&.&.&.&.&.&.&.&.% G.Y.Y.Y.Y.Y.Y.Y.Y.Y.Y.Y.Y.Y.Y.Y.Y.Y.P.f . . . . . . . . . . X ..&.          ",
"            $.W  .$.&.&.&.&.&.&.&.&.&.&.&.&.&.&.&., M.Y.Y.Y.Y.Y.Y.Y.Y.Y.Y.Y.Y.Y.Y.Y.Y.Y.Y.Y.A . . . . . . . . . t #.            ",
"              $.r ;.&.&.&.&.&.&.&.&.&.&.&.&.&.&.#.d y.Y.Y.Y.Y.Y.Y.Y.Y.Y.Y.Y.Y.Y.Y.Y.Y.Y.Y.Y.Y.e.o . . . . . . # #.              ",
"              &.#.c -.&.&.&.&.&.&.&.&.&.&.&.&.&.&.^ N Y.Y.Y.Y.Y.Y.Y.Y.Y.Y.Y.Y.Y.Y.Y.Y.Y.Y.Y.Y.Y.b.* . . . . . R #.              ",
"                $.Q L &.&.&.&.&.&.&.&.&.&.&.&.&.&.$.2 L.Y.Y.Y.Y.Y.Y.Y.Y.Y.Y.Y.Y.Y.Y.Y.Y.Y.Y.Y.Y.Y.G.a . . . u &.                ",
"                  #.G } &.&.&.&.&.&.&.&.&.&.&.&.&.&./ A Y.Y.Y.Y.Y.Y.Y.Y.Y.Y.Y.Y.Y.Y.Y.Y.Y.Y.Y.Y.Y.Y.Y.:.X 8 &.                  ",
"                    &.p ' &.&.&.&.&.&.&.&.&.&.&.&.&.&.x y.Y.Y.Y.Y.Y.Y.Y.Y.Y.Y.Y.Y.Y.Y.Y.Y.Y.Y.Y.Y.Y.Y.2.: #.%.                  ",
"                      &.u U -.&.&.&.&.&.&.&.&.&.&.&.&.&.x b.Y.Y.Y.Y.Y.Y.Y.Y.Y.Y.Y.Y.Y.Y.Y.Y.Y.Y.Y.Y.S ; +.#.                    ",
"                        &.F c ;.&.&.&.&.&.&.&.&.&.&.&.&.%.b 3.Y.Y.Y.Y.Y.Y.Y.Y.Y.Y.Y.Y.Y.Y.Y.Y.Y.G.z 8 $.#.                      ",
"                          $.R 3 u.&.&.&.&.&.&.&.&.&.&.&.&.&.U a b.Y.Y.Y.Y.Y.Y.Y.Y.Y.Y.Y.Y.Y.Y.v.< y &.%.                        ",
"                            #.o.7 L ;.&.&.&.&.&.&.&.&.&.&.&.&.@.d z m.Y.Y.Y.Y.Y.Y.Y.Y.Y.Y.G.M $ R $.                            ",
"                              #.&.J = ~ ;.&.&.&.&.&.&.&.&.&.&.&.&.] g a 2.F.Y.Y.Y.Y.Y.G.( % t #.#.                              ",
"                                  #.#.i = I p.-.&.&.&.&.&.&.&.&.&.&.&.=.{ x f S v.v.M O 0 ] &.                                  ",
"                                      #.$.G > - ^ i.;.-.&.&.&.&.&.&.&.&.&.-.*.k % = u X.&.&.                                    ",
"                                          #.&.X.D 9 # % h m I / / U m h = o > i Q &.#.&.                                        ",
"                                              &.#.&.&.#.Q J F p i D H R o.&.&.#.&.                                              ",
"                                                        &.-.#.#.#.#.$.&.                                                        ",
"                                                                                                                                ",
"                                                                                                                                "
};
