/* XPM */
static char *_4e5c2623153481d9bc6f3c8c07ad2f7ryk3GCmtNOxxkaE8[] = {
/* columns rows colors chars-per-pixel */
"32 32 204 2 ",
"   c None",
".  c black",
"X  c #010100",
"o  c #020101",
"O  c #030201",
"+  c #030302",
"@  c gray1",
"#  c #040302",
"$  c #040404",
"%  c #080604",
"&  c #080807",
"*  c #0E0B07",
"=  c #0F0C08",
"-  c #110E09",
";  c #120F09",
":  c #14110A",
">  c #15110B",
",  c #11100F",
"<  c #1A150D",
"1  c #1A160D",
"2  c #111111",
"3  c #131211",
"4  c #151412",
"5  c #1A1917",
"6  c #1D1C19",
"7  c #1F1E1B",
"8  c #261F13",
"9  c #272014",
"0  c #282114",
"q  c #2B2316",
"w  c #21201D",
"e  c #27231D",
"r  c #342A1A",
"t  c #252420",
"y  c #282723",
"u  c #2E2D28",
"i  c #2F2E29",
"p  c #2D2D2D",
"a  c #3F3320",
"s  c #33312C",
"d  c #34322D",
"f  c #393732",
"g  c #3B3933",
"h  c #3F3D36",
"j  c #57482C",
"k  c #5B4A2E",
"l  c #424039",
"z  c #44423B",
"x  c #47453E",
"c  c #675434",
"v  c #665435",
"b  c #685534",
"n  c #6C5836",
"m  c #524F47",
"M  c #5C5344",
"N  c #585858",
"B  c #685A42",
"V  c #726145",
"C  c #7E6742",
"Z  c #7E6840",
"A  c #72644E",
"S  c #706C62",
"D  c #716D62",
"F  c #846C42",
"G  c #846C43",
"H  c #8B7146",
"J  c #8E7447",
"K  c #8F7648",
"L  c #90774C",
"P  c #937849",
"I  c #95794A",
"U  c #92794D",
"Y  c #887351",
"T  c #8E7650",
"R  c #8A795E",
"E  c #837661",
"W  c #827E71",
"Q  c #9A815A",
"!  c #A28452",
"~  c #A38552",
"^  c #A48652",
"/  c #A48653",
"(  c #A58753",
")  c #A78B56",
"_  c #A98A55",
"`  c #AA8B55",
"'  c #AC8C56",
"]  c #AC8C57",
"[  c #B09059",
"{  c #B19159",
"}  c #B29159",
"|  c #B39259",
" . c #B4935B",
".. c #B6945C",
"X. c #B7975C",
"o. c #B7965D",
"O. c #B8965C",
"+. c #B9965C",
"@. c #B9975C",
"#. c #B8965D",
"$. c #B9965D",
"%. c #B8975D",
"&. c #B9975D",
"*. c #BA975E",
"=. c #BA985D",
"-. c #BB985D",
";. c #BB995E",
":. c #BC995E",
">. c #BD995E",
",. c #BD995F",
"<. c #BC9A5E",
"1. c #BD9A5F",
"2. c #BE9A5F",
"3. c #8F8066",
"4. c #96876D",
"5. c #858174",
"6. c #8E8575",
"7. c #8A8678",
"8. c #968871",
"9. c #918877",
"0. c #908B7D",
"q. c #918C7E",
"w. c #9F937F",
"e. c #A48D61",
"r. c #B19360",
"t. c #BF9D60",
"y. c #B59B6F",
"u. c #A49273",
"i. c #A89472",
"p. c #A89474",
"a. c #A89574",
"s. c #B29D79",
"d. c #BFA67B",
"f. c #BBA37D",
"g. c #C09E61",
"h. c #C7A76F",
"j. c #D7B16D",
"k. c #D9B16D",
"l. c #D8B06E",
"z. c #D3AF70",
"x. c #DAB371",
"c. c #DAB372",
"v. c #DBB575",
"b. c #DAB576",
"n. c #D7B77F",
"m. c #DAB77A",
"M. c #DAB77B",
"N. c #D9B77E",
"B. c #878685",
"V. c #938E80",
"C. c #9A9388",
"Z. c #939392",
"A. c gray60",
"S. c #9D9B98",
"D. c #B2A388",
"F. c #A1A19F",
"G. c #AFAA98",
"H. c #B4AE9D",
"J. c #B5AF9E",
"K. c #BAB4A2",
"L. c gray70",
"P. c #B6B6B5",
"I. c gray72",
"U. c #C4AB80",
"Y. c #C5AC82",
"T. c #CCB081",
"R. c #CDB282",
"E. c #D6B680",
"W. c #C4BEAB",
"Q. c #C3BEAD",
"!. c #E6CB9B",
"~. c #C1C1C1",
"^. c #C5C5C5",
"/. c #DBD9D6",
"(. c gray87",
"). c #E1DAC4",
"_. c #E4DDC6",
"`. c #E5DEC7",
"'. c #E7E0C9",
"]. c #EBE4CD",
"[. c #F2E2C1",
"{. c #F5E6C6",
"}. c #F3EBD4",
"|. c #F4ECD4",
" X c #FAEED2",
".X c #F8F0D8",
"XX c #F9F1D9",
"oX c #FCF4DB",
"OX c #FEF5DD",
"+X c #FEF6DD",
"@X c #FFF7DE",
"#X c gray90",
"$X c #E6E6E6",
"%X c #EBEAE8",
"&X c #EEEEEE",
"*X c #FFF7E0",
"=X c #FFF9E6",
"-X c #F6F4EF",
";X c gray95",
":X c #F4F4F4",
">X c gray96",
",X c #FFFCF2",
"<X c #F9F9F9",
"1X c white",
/* pixels */
"                                                                ",
"                          2.....*...=.                          ",
"                    *._ b 0 : + + = 9 k ! =.                    ",
"                2.P 1 + + + + + + + + + + - Z ..                ",
"               .8 + + + + + + + + + + + + + + : _               ",
"            ! * + + + + + + + + + + + + + + + + # H             ",
"          ! + + + + + + + + + + + + + + + + + + + + G           ",
"         .& + + + + + + + + + + + + + + + + + + + + + ^         ",
"      2.8 + + + + + + + + t S 0.q.D t + + + + + + + + * *.      ",
"      P + + + + + + + 5 G.@X+X+X@X@X+XJ.7 + + + + + + + b       ",
"    *.1 + + + + + + u `.@X@X@X@X@X@X+X*X].s + + + + + + % X.    ",
"    _ + + + + + + - ).+X@X@X@X@X@X@X+X+X+X`.3 + + + + + + P     ",
"    c + + + + + + 5.@X@X@X@X@X@X@X@X@X@X@X@XV.+ + + + + + a     ",
"  2.0 + + + + + @ ].@X@X@X@X@X@X@X@X@X@X@X@X}.& + + + + + # *.  ",
"  *.: + + + + + i *X+X@X@X@X@X@X@X@X@X@X@X@X+Xd + + + + + + {   ",
"  *.+ + + + + + x +X@X@X@X@X@X@X@X@X@X@X@X*X+Xm + + + + + + '   ",
"  *.+ + + + + + g @X@X@X+XoX.X+XXX+X@X@X@X@X@Xz + + + + + + _   ",
"  ..* + + + + + 3 oX@X@X@X|.W s 7 `.@X@X*X+X+X5 + + + + + + {   ",
"  =.8 + + + + + + K.+X@X+X X{.6.W.J.@X@X+X+XW.+ + + + + + # *.  ",
"    j + + + + + + h [.!.b.j.D./.:X:X=X@X+X+Xh + + + + + + r g.  ",
"    ^ + + + + t u.m.k.k.k.9.<X1X1X1X1X,X*X5.+ + + + + + + F     ",
"    *.* + M h.b.k.k.k.k.y.I.1X1X1X1X1X1X%Xp + + + + + + + {     ",
"      T n.k.k.k.k.k.k.k.E ;X1X1X1X1X1X1X1X:XN + + + + + j       ",
"      =.Y.k.k.k.k.k.k.k.E #X1X1X1X1X1X1X1X1X1XA.+ + + % *.      ",
"        r.N.k.k.k.k.k.k.h.F.1X1X1X1X1X1X1X1X1X1XP.3 + J         ",
"          e.M.k.k.k.k.k.k.8.&X1X1X1X1X1X1X1X1X1X1X~.v           ",
"            Q E.k.k.k.k.k.l.w.#X1X1X1X1X1X1X1X1X^.B t.          ",
"              ) s.x.k.k.k.k.k.u.S.;X1X1X1X1X:XB.K t.            ",
"                2.Y f.b.k.k.k.k.z.4.C.L.(.Z.B *.                ",
"                    X.U R p.U.R.T.d.u.A C ..                    ",
"                          =. .' ' { @.t.                        ",
"                                                                "
};
