/* XPM */
static char *_24944e7faf04bdac9cee2db44e9363fIPyiHUCZtis0Mzr6[] = {
/* columns rows colors chars-per-pixel */
"16 16 86 1 ",
"  c None",
". c black",
"X c #010100",
"o c #010101",
"O c #020101",
"+ c #020202",
"@ c gray1",
"# c #040302",
"$ c #040403",
"% c #050403",
"& c #060503",
"* c #090805",
"= c #0E0C07",
"- c #120F09",
"; c #1E180F",
": c #1F190F",
"> c #191713",
", c #221C11",
"< c #231D11",
"1 c #383630",
"2 c #3A3832",
"3 c #504128",
"4 c #53442A",
"5 c #5B4A2D",
"6 c #5A492E",
"7 c #5E4D30",
"8 c #635032",
"9 c #6D5837",
"0 c #6F5A37",
"q c #79633C",
"w c #56534B",
"e c #5F5C53",
"r c #6D6A5F",
"t c #6F6C61",
"y c gray47",
"u c #836B42",
"i c #8C7347",
"p c #8E7448",
"a c #8D744C",
"s c #927749",
"d c #93784A",
"f c #91794C",
"g c #937A4D",
"h c #8B7E66",
"j c #9F8B66",
"k c #9A896C",
"l c #858174",
"z c #92897B",
"x c #958D7F",
"c c #A7916C",
"v c #AB9774",
"b c #D9B16D",
"n c #C0A67A",
"m c #DAB473",
"M c #D9B77D",
"N c #D8B77F",
"B c #938E80",
"V c #969183",
"C c #96938B",
"Z c #A29D8D",
"A c #B4A386",
"S c #BAA480",
"D c #ACA796",
"F c #B4AE9D",
"G c #B5AF9E",
"H c #B8AE9D",
"J c #A2A2A2",
"K c #B9B3A1",
"L c #BEB8A5",
"P c #CAAF82",
"I c #C0AD8E",
"U c #D6B680",
"Y c #C5BBA6",
"T c #EAD3A9",
"R c #D7D4C8",
"E c gainsboro",
"W c #DFDDDC",
"Q c #F4E6C7",
"! c #FBF3DB",
"~ c #FDF5DC",
"^ c #FFF7DE",
"/ c #FFF7E0",
"( c gray98",
") c #FFFEFB",
"_ c #FDFDFD",
"` c white",
/* pixels */
"                ",
"    s7<##;6p    ",
"   q*XXXXXX%9   ",
"  qXXXXXXXXXX9  ",
" d*XXXtFGt@XXXp ",
" 7XXXG^^^/KXXX4 ",
" <XXw^^^^^^eXX- ",
" %XXB/^^^^^ZXXX ",
" @XXh^!DL^^VXXX ",
" ;XX1QTYR/^1XX= ",
" 7>kUbA)`)CXXX3 ",
" gUbbbH)```yXXu ",
"  cmbbn(````J8  ",
"   jMbbHE``Eh   ",
"    gvPUnxza    ",
"                "
};
